<svg xmlns="http://www.w3.org/2000/svg" width="16" height="16" fill="context-fill" fill-opacity="context-fill-opacity" viewBox="0 0 16 16">
  <path
     style="fill:#9c0000;fill-opacity:1"
     d="m 12.21,3.8660538 h -1.15 c -1.1,0 -1.92,0.13 -2.66,-0.46 -0.32,-0.25 -0.34,-0.24 -0.63,-0.53 -0.95,-0.96 -2.38,0.48 -1.41,1.42 0.3,0.33 0.49,0.4 0.79,0.67 1.07,0.86 2.34,0.92 3.93,0.9 h 1.16 l -0.94,1.18 c -1,1.03 0.69,2.44 1.53,1.28 l 2.83,-3.44 -2.83,-3.44 c -0.86,-0.89999996 -2.26,0.27 -1.53,1.28 z"
     fill-opacity="context-fill-opacity"
     fill="context-fill" />
  <path
     style="stroke-width:1;fill:#9c5ccc;fill-opacity:1"
     d="m 3.66,11.03 0.9,1.13 c 0.9,1.03 -0.68,2.35 -1.53,1.28 L 0.2,10 3.03,6.56 C 3.89,5.58 5.38,6.82 4.57,7.84 L 3.6,9.03 c 4.07,0 5.8,0.05 6.6,1.67 0.67,1.73 0.3,2.61 -2.03,4.18 C 7.06,15.73 5.89,14.2 6.87,13.32 7.82,12.58 8.65,12.16 8.42,11.59 8.12,11.03 6.88,11.03 3.65,11.03 Z"
     fill-opacity="context-fill-opacity"
     fill="context-stroke" />
</svg>
