<?xml version="1.0" encoding="UTF-8" standalone="no"?>
<svg
   xmlns:dc="http://purl.org/dc/elements/1.1/"
   xmlns:cc="http://creativecommons.org/ns#"
   xmlns:rdf="http://www.w3.org/1999/02/22-rdf-syntax-ns#"
   xmlns:svg="http://www.w3.org/2000/svg"
   xmlns="http://www.w3.org/2000/svg"
   xmlns:sodipodi="http://sodipodi.sourceforge.net/DTD/sodipodi-0.dtd"
   xmlns:inkscape="http://www.inkscape.org/namespaces/inkscape"
   width="16"
   height="16"
   fill="context-fill"
   fill-opacity="context-fill-opacity"
   viewBox="0 0 16 16"
   version="1.1"
   id="svg4"
   sodipodi:docname="resent.svg"
   inkscape:version="1.0.2-2 (e86c870879, 2021-01-15)">
  <metadata
     id="metadata10">
    <rdf:RDF>
      <cc:Work
         rdf:about="">
        <dc:format>image/svg+xml</dc:format>
        <dc:type
           rdf:resource="http://purl.org/dc/dcmitype/StillImage" />
        <dc:title></dc:title>
      </cc:Work>
    </rdf:RDF>
  </metadata>
  <defs
     id="defs8" />
  <sodipodi:namedview
     pagecolor="#ffffff"
     bordercolor="#666666"
     borderopacity="1"
     objecttolerance="10"
     gridtolerance="10"
     guidetolerance="10"
     inkscape:pageopacity="0"
     inkscape:pageshadow="2"
     inkscape:window-width="1330"
     inkscape:window-height="822"
     id="namedview6"
     showgrid="false"
     inkscape:zoom="45.9375"
     inkscape:cx="8"
     inkscape:cy="8"
     inkscape:window-x="0"
     inkscape:window-y="0"
     inkscape:window-maximized="0"
     inkscape:current-layer="svg4" />
  <path
     style="fill:#000000;fill-opacity:1"
     d="m 10.35,6.9461254 c -1.263,-0.006 -2.315,-0.004 -3.156,0.003 -1.092,0.01 -1.922,-0.314 -2.657,-0.905 a 6.041,-6.041 0 0 1 -0.45,-0.404 c -0.09,-0.088 -0.362,-0.367 -0.38,-0.384 a 1,-1 0 1 0 -1.414,1.414 c 0.004,0.004 0.286,0.292 0.393,0.397 0.199,0.196 0.39,0.368 0.598,0.535 1.076,0.866 2.344,1.362 3.929,1.347 0.839,-0.008 1.894,-0.009 3.166,-0.003 L 9.232,10.323125 a 1,-1 0 1 0 1.536,1.28 l 3.034,-3.6399996 -3.034,-3.64 a 1,-1 0 0 0 -1.536,1.28 l 1.119,1.343 z"
     id="path2" />
</svg>
