<svg xmlns="http://www.w3.org/2000/svg" viewBox="0 0 16 16" width="16" height="16" fill="white" stroke="black" fill-opacity="1">
  <path d="m 10.35,6.9461254 c -1.263,-0.006 -2.315,-0.004 -3.156,0.003 -1.092,0.01 -1.922,-0.314 -2.657,-0.905 a 6.041,-6.041 0 0 1 -0.45,-0.404 c -0.09,-0.088 -0.362,-0.367 -0.38,-0.384 a 1,-1 0 1 0 -1.414,1.414 c 0.004,0.004 0.286,0.292 0.393,0.397 0.199,0.196 0.39,0.368 0.598,0.535 1.076,0.866 2.344,1.362 3.929,1.347 0.839,-0.008 1.894,-0.009 3.166,-0.003 L 9.232,10.323125 a 1,-1 0 1 0 1.536,1.28 l 3.034,-3.6399996 -3.034,-3.64 a 1,-1 0 0 0 -1.536,1.28 l 1.119,1.343 z"/>
</svg>
